<svg xmlns="http://www.w3.org/2000/svg" viewBox="0 0 64 64">
  <defs>
    <linearGradient id="grad" x1="0" y1="0" x2="1" y2="1">
      <stop offset="0" stop-color="#7BB0FF"/>
      <stop offset="1" stop-color="#B58BFF"/>
    </linearGradient>
  </defs>
  <rect width="64" height="64" rx="12" fill="black"/>
  <path d="M50 26c0-9.9-8.1-18-18-18S14 16.1 14 26c0 6.6 5.4 12 12 12 5.3 0 9.6-4.3 9.6-9.6 0-4.4-3.6-8-8-8-3.9 0-7 3.1-7 7 0 3.1 2.6 5.6 5.8 5.6 2.8 0 5-2.2 5-5" 
        fill="none" stroke="url(#grad)" stroke-width="6" stroke-linecap="round" stroke-linejoin="round"/>
  <path d="M32 28c0-1.7-1.3-3-3-3-2 0-3.5 1.6-3.5 3.6 0 2.4 2 4.4 4.4 4.4 3.7 0 6.8-3.1 6.8-6.8"
        fill="none" stroke="url(#grad)" stroke-width="6" stroke-linecap="round" stroke-linejoin="round"/>
</svg>
